<svg width="512" height="512" viewBox="0 0 512 512" fill="none" xmlns="http://www.w3.org/2000/svg">
  <rect width="512" height="512" rx="96" fill="#7ED957"/>
  <path d="M144 232.5C156.8 222.9 171.7 214.1 189.7 207.5L171 144.3C166.2 129.2 180.3 115.7 195.2 120.7L246.1 137.1C254.8 139.9 262 144.9 268.3 151.2L278.2 160.5C308.9 153.8 342.1 152 372.6 157.7C401.7 136.5 444 141.4 465.5 170.2C481.9 191.9 482.2 220.3 468.2 241.9C499.6 263.3 518 299.4 518 343C518 396.1 499.8 461.4 465.8 508.3C461 514.9 453.9 518.8 446.6 518.8H361.8C350.5 518.8 340.4 512.4 335.8 502.1L319.3 468.3H263.7L247.2 502.1C242.3 512.4 232.4 518.8 221.1 518.8H136.3C121.9 518.8 109.7 507.8 108.3 493.5L96.7 362.3C65.3 349.6 39.1 325.8 22.1 294.5C17.6 286.8 15.2 277.5 15.2 268.8V218.7C15.2 202.6 28.2 189.7 44.2 189.7H106L144 232.5Z" fill="#F6F7F7"/>
  <path d="M174.9 242.3C213.5 223.9 262.1 214.7 312.7 214.7C408.3 214.7 469.5 250.9 469.5 334.6C469.5 374.9 456.2 428.9 431.6 473.1H385.7L365.5 432C360.7 422.2 350.8 416 340.4 416H243.2C232.9 416 223.1 422.2 218.1 432L198.2 473.1H152.6L142.4 362.1C141.3 351.7 134.9 342.1 125.3 337.8C100.1 327.6 80 311.1 65.7 289.3V243.7H120.2C128.5 243.7 136.3 239.6 141 232.8L156.7 210.9L174.9 242.3Z" fill="#7ED957"/>
  <circle cx="398" cy="196" r="18" fill="#7ED957"/>
</svg>
