<svg width="640" height="1280" viewBox="0 0 640 1280" fill="none" xmlns="http://www.w3.org/2000/svg">
  <defs>
    <linearGradient id="bg3" x1="62" y1="70" x2="566" y2="1220" gradientUnits="userSpaceOnUse">
      <stop stop-color="#09131E"/>
      <stop offset="1" stop-color="#112031"/>
    </linearGradient>
  </defs>
  <rect width="640" height="1280" rx="64" fill="url(#bg3)"/>
  <rect x="48" y="64" width="544" height="88" rx="24" fill="#0C1723" stroke="#1F3346"/>
  <rect x="48" y="190" width="544" height="260" rx="30" fill="#0E1C2A" stroke="#1F3346"/>
  <rect x="80" y="232" width="200" height="20" rx="10" fill="#8FAFBC" fill-opacity="0.45"/>
  <rect x="80" y="272" width="460" height="2" fill="#1F3346"/>
  <g>
    <rect x="80" y="310" width="224" height="102" rx="20" fill="#0F2630" stroke="#1F3346"/>
    <rect x="112" y="346" width="120" height="20" rx="10" fill="#D6E9EF" fill-opacity="0.75"/>
    <rect x="336" y="310" width="224" height="102" rx="20" fill="#0F2630" stroke="#1F3346"/>
    <rect x="368" y="346" width="120" height="20" rx="10" fill="#D6E9EF" fill-opacity="0.75"/>
  </g>
  <rect x="48" y="486" width="544" height="706" rx="30" fill="#0C1723" stroke="#1F3346"/>
  <rect x="80" y="530" width="340" height="24" rx="12" fill="#D6E9EF" fill-opacity="0.76"/>
  <rect x="80" y="570" width="210" height="18" rx="9" fill="#95B4C2" fill-opacity="0.45"/>
  <rect x="80" y="622" width="480" height="2" fill="#1F3346"/>
  <rect x="80" y="662" width="430" height="20" rx="10" fill="#9CBCCA" fill-opacity="0.5"/>
  <rect x="80" y="704" width="380" height="20" rx="10" fill="#9CBCCA" fill-opacity="0.5"/>
  <rect x="80" y="746" width="330" height="20" rx="10" fill="#9CBCCA" fill-opacity="0.5"/>
  <rect x="80" y="788" width="290" height="20" rx="10" fill="#9CBCCA" fill-opacity="0.5"/>
  <rect x="80" y="830" width="360" height="20" rx="10" fill="#9CBCCA" fill-opacity="0.5"/>
</svg>
