<svg width="640" height="1280" viewBox="0 0 640 1280" fill="none" xmlns="http://www.w3.org/2000/svg">
  <defs>
    <linearGradient id="bg" x1="76" y1="52" x2="554" y2="1220" gradientUnits="userSpaceOnUse">
      <stop stop-color="#020D24"/>
      <stop offset="1" stop-color="#07142A"/>
    </linearGradient>
  </defs>
  <rect width="640" height="1280" rx="62" fill="url(#bg)"/>
  <rect x="48" y="60" width="196" height="18" rx="9" fill="#7F95AE" fill-opacity="0.72"/>
  <rect x="48" y="102" width="230" height="54" rx="14" fill="#EEF5FF"/>
  <rect x="48" y="184" width="400" height="26" rx="13" fill="#9AB0C7" fill-opacity="0.84"/>
  <circle cx="548" cy="92" r="40" fill="#101C35" stroke="#2A3F64"/>
  <rect x="48" y="256" width="544" height="184" rx="34" fill="#071B2B" stroke="#104A46" stroke-width="2"/>
  <rect x="82" y="308" width="220" height="22" rx="11" fill="#8FA1B7" fill-opacity="0.8"/>
  <rect x="82" y="360" width="318" height="62" rx="18" fill="#36D58C"/>
  <rect x="510" y="314" width="18" height="48" rx="9" fill="#36D58C"/>
  <rect x="48" y="474" width="258" height="150" rx="28" fill="#0B1730" stroke="#20365A"/>
  <rect x="334" y="474" width="258" height="150" rx="28" fill="#0B1730" stroke="#20365A"/>
  <rect x="80" y="528" width="120" height="20" rx="10" fill="#8699B4"/>
  <rect x="80" y="570" width="150" height="34" rx="12" fill="#36D58C"/>
  <rect x="366" y="528" width="110" height="20" rx="10" fill="#8699B4"/>
  <rect x="366" y="570" width="150" height="34" rx="12" fill="#FF6B7A"/>
  <rect x="48" y="654" width="258" height="150" rx="28" fill="#0B1730" stroke="#20365A"/>
  <rect x="334" y="654" width="258" height="150" rx="28" fill="#0B1730" stroke="#20365A"/>
  <rect x="80" y="708" width="146" height="20" rx="10" fill="#8699B4"/>
  <rect x="80" y="750" width="148" height="34" rx="12" fill="#F1B24C"/>
  <rect x="366" y="708" width="122" height="20" rx="10" fill="#8699B4"/>
  <rect x="366" y="750" width="130" height="34" rx="12" fill="#54A5FF"/>
  <rect x="48" y="836" width="544" height="194" rx="30" fill="#0B1730" stroke="#20365A"/>
  <rect x="80" y="884" width="220" height="24" rx="12" fill="#EEF5FF"/>
  <rect x="80" y="928" width="264" height="20" rx="10" fill="#8FA1B7"/>
  <rect x="80" y="968" width="470" height="18" rx="9" fill="#20365A"/>
  <rect x="80" y="968" width="332" height="18" rx="9" fill="#4F88FF"/>
  <rect x="48" y="1062" width="544" height="140" rx="30" fill="#0B1730" stroke="#20365A"/>
  <rect x="80" y="1112" width="240" height="24" rx="12" fill="#EEF5FF"/>
  <rect x="80" y="1152" width="160" height="18" rx="9" fill="#8FA1B7"/>
  <rect x="80" y="1184" width="470" height="72" rx="22" fill="#162847"/>
  <rect x="122" y="1214" width="42" height="42" rx="10" fill="#4F88FF"/>
  <rect x="300" y="1214" width="42" height="42" rx="10" fill="#C2CDDE"/>
  <rect x="478" y="1214" width="42" height="42" rx="10" fill="#C2CDDE"/>
</svg>
