<svg width="640" height="1280" viewBox="0 0 640 1280" fill="none" xmlns="http://www.w3.org/2000/svg">
  <defs>
    <linearGradient id="bg" x1="62" y1="44" x2="576" y2="1230" gradientUnits="userSpaceOnUse">
      <stop stop-color="#020D24"/>
      <stop offset="1" stop-color="#07142A"/>
    </linearGradient>
  </defs>
  <rect width="640" height="1280" rx="62" fill="url(#bg)"/>
  <rect x="48" y="56" width="186" height="18" rx="9" fill="#7F95AE"/>
  <rect x="48" y="102" width="210" height="54" rx="14" fill="#EEF5FF"/>
  <rect x="48" y="184" width="370" height="26" rx="13" fill="#9AB0C7" fill-opacity="0.84"/>
  <circle cx="548" cy="92" r="40" fill="#101C35" stroke="#2A3F64"/>
  <rect x="48" y="254" width="164" height="86" rx="28" fill="#0B1730" stroke="#20365A"/>
  <rect x="238" y="254" width="164" height="86" rx="28" fill="#23172A" stroke="#8D3E55"/>
  <rect x="428" y="254" width="164" height="86" rx="28" fill="#0B1730" stroke="#20365A"/>
  <rect x="48" y="372" width="544" height="630" rx="34" fill="#0B1730" stroke="#20365A"/>
  <rect x="80" y="420" width="280" height="24" rx="12" fill="#EEF5FF"/>
  <rect x="80" y="460" width="170" height="18" rx="9" fill="#8FA1B7"/>
  <rect x="80" y="536" width="80" height="18" rx="9" fill="#C8D4E5"/>
  <rect x="80" y="574" width="470" height="86" rx="22" fill="#1A2D4D"/>
  <rect x="80" y="706" width="120" height="18" rx="9" fill="#C8D4E5"/>
  <rect x="80" y="744" width="470" height="86" rx="22" fill="#1A2D4D"/>
  <rect x="80" y="876" width="90" height="18" rx="9" fill="#C8D4E5"/>
  <rect x="80" y="914" width="470" height="86" rx="22" fill="#1A2D4D"/>
  <rect x="80" y="1054" width="160" height="18" rx="9" fill="#C8D4E5"/>
  <rect x="80" y="1094" width="180" height="58" rx="18" fill="#1A2D4D"/>
  <rect x="286" y="1094" width="150" height="58" rx="18" fill="#1A2D4D"/>
  <rect x="454" y="1094" width="98" height="58" rx="18" fill="#1A2D4D"/>
  <rect x="80" y="1164" width="130" height="58" rx="18" fill="#1A2D4D"/>
  <rect x="224" y="1164" width="150" height="58" rx="18" fill="#4F88FF"/>
  <rect x="388" y="1164" width="120" height="58" rx="18" fill="#1A2D4D"/>
</svg>
