<svg width="640" height="1280" viewBox="0 0 640 1280" fill="none" xmlns="http://www.w3.org/2000/svg">
  <defs>
    <linearGradient id="bg" x1="60" y1="40" x2="576" y2="1230" gradientUnits="userSpaceOnUse">
      <stop stop-color="#020D24"/>
      <stop offset="1" stop-color="#07142A"/>
    </linearGradient>
  </defs>
  <rect width="640" height="1280" rx="62" fill="url(#bg)"/>
  <rect x="48" y="56" width="220" height="18" rx="9" fill="#7F95AE"/>
  <rect x="48" y="104" width="210" height="54" rx="14" fill="#EEF5FF"/>
  <rect x="48" y="186" width="360" height="26" rx="13" fill="#9AB0C7" fill-opacity="0.84"/>
  <circle cx="548" cy="92" r="40" fill="#101C35" stroke="#2A3F64"/>
  <rect x="48" y="258" width="544" height="232" rx="32" fill="#0B1730" stroke="#20365A"/>
  <rect x="80" y="306" width="220" height="24" rx="12" fill="#EEF5FF"/>
  <rect x="80" y="346" width="170" height="18" rx="9" fill="#8FA1B7"/>
  <rect x="80" y="398" width="180" height="18" rx="9" fill="#EEF5FF"/>
  <rect x="410" y="398" width="142" height="18" rx="9" fill="#C8D4E5"/>
  <rect x="80" y="430" width="470" height="18" rx="9" fill="#20365A"/>
  <rect x="80" y="430" width="330" height="18" rx="9" fill="#36D58C"/>
  <rect x="80" y="490" width="170" height="18" rx="9" fill="#EEF5FF"/>
  <rect x="410" y="490" width="142" height="18" rx="9" fill="#C8D4E5"/>
  <rect x="80" y="522" width="470" height="18" rx="9" fill="#20365A"/>
  <rect x="80" y="522" width="150" height="18" rx="9" fill="#FF6B7A"/>
  <rect x="48" y="530" width="544" height="232" rx="32" fill="#0B1730" stroke="#20365A"/>
  <rect x="80" y="578" width="246" height="24" rx="12" fill="#EEF5FF"/>
  <rect x="80" y="618" width="220" height="18" rx="9" fill="#8FA1B7"/>
  <rect x="80" y="670" width="120" height="18" rx="9" fill="#EEF5FF"/>
  <rect x="408" y="670" width="144" height="18" rx="9" fill="#C8D4E5"/>
  <rect x="80" y="702" width="470" height="18" rx="9" fill="#20365A"/>
  <rect x="80" y="702" width="446" height="18" rx="9" fill="#4F88FF"/>
  <rect x="80" y="760" width="156" height="18" rx="9" fill="#EEF5FF"/>
  <rect x="426" y="760" width="126" height="18" rx="9" fill="#C8D4E5"/>
  <rect x="80" y="792" width="470" height="18" rx="9" fill="#20365A"/>
  <rect x="80" y="792" width="34" height="18" rx="9" fill="#4F88FF"/>
  <rect x="48" y="804" width="544" height="232" rx="32" fill="#0B1730" stroke="#20365A"/>
  <rect x="80" y="852" width="220" height="24" rx="12" fill="#EEF5FF"/>
  <rect x="80" y="892" width="186" height="18" rx="9" fill="#8FA1B7"/>
  <rect x="80" y="944" width="102" height="18" rx="9" fill="#EEF5FF"/>
  <rect x="408" y="944" width="144" height="18" rx="9" fill="#C8D4E5"/>
  <rect x="80" y="976" width="470" height="18" rx="9" fill="#20365A"/>
  <rect x="80" y="976" width="446" height="18" rx="9" fill="#F1B24C"/>
  <rect x="80" y="1034" width="138" height="18" rx="9" fill="#EEF5FF"/>
  <rect x="426" y="1034" width="126" height="18" rx="9" fill="#C8D4E5"/>
  <rect x="80" y="1066" width="470" height="18" rx="9" fill="#20365A"/>
  <rect x="80" y="1066" width="34" height="18" rx="9" fill="#6CC6FF"/>
  <rect x="48" y="1112" width="544" height="140" rx="30" fill="#162847"/>
  <rect x="116" y="1160" width="42" height="42" rx="10" fill="#C2CDDE"/>
  <rect x="300" y="1160" width="42" height="42" rx="10" fill="#C2CDDE"/>
  <rect x="482" y="1160" width="42" height="42" rx="10" fill="#4F88FF"/>
</svg>
