<svg width="640" height="1280" viewBox="0 0 640 1280" fill="none" xmlns="http://www.w3.org/2000/svg">
  <defs>
    <linearGradient id="bg2" x1="90" y1="70" x2="562" y2="1220" gradientUnits="userSpaceOnUse">
      <stop stop-color="#0A1520"/>
      <stop offset="1" stop-color="#0E1A27"/>
    </linearGradient>
  </defs>
  <rect width="640" height="1280" rx="64" fill="url(#bg2)"/>
  <rect x="48" y="64" width="544" height="90" rx="24" fill="#0C1723" stroke="#1F3346"/>
  <rect x="48" y="188" width="544" height="116" rx="28" fill="#112334" stroke="#1F3346"/>
  <rect x="72" y="224" width="190" height="22" rx="11" fill="#9ABBC8" fill-opacity="0.5"/>
  <rect x="72" y="258" width="300" height="24" rx="12" fill="#D6E9EF" fill-opacity="0.78"/>
  <g>
    <rect x="48" y="338" width="544" height="850" rx="30" fill="#0C1723" stroke="#1F3346"/>
    <rect x="80" y="384" width="180" height="20" rx="10" fill="#8FAFBC" fill-opacity="0.45"/>
    <rect x="80" y="430" width="480" height="2" fill="#1F3346"/>
    <rect x="80" y="468" width="330" height="24" rx="12" fill="#D6E9EF" fill-opacity="0.76"/>
    <rect x="80" y="508" width="220" height="18" rx="9" fill="#95B4C2" fill-opacity="0.45"/>
    <rect x="466" y="470" width="94" height="20" rx="10" fill="#00D084" fill-opacity="0.5"/>
    <rect x="80" y="572" width="300" height="24" rx="12" fill="#D6E9EF" fill-opacity="0.76"/>
    <rect x="80" y="612" width="210" height="18" rx="9" fill="#95B4C2" fill-opacity="0.45"/>
    <rect x="458" y="574" width="102" height="20" rx="10" fill="#FF7373" fill-opacity="0.35"/>
    <rect x="80" y="676" width="350" height="24" rx="12" fill="#D6E9EF" fill-opacity="0.76"/>
    <rect x="80" y="716" width="260" height="18" rx="9" fill="#95B4C2" fill-opacity="0.45"/>
    <rect x="470" y="678" width="90" height="20" rx="10" fill="#00D084" fill-opacity="0.5"/>
    <rect x="80" y="780" width="280" height="24" rx="12" fill="#D6E9EF" fill-opacity="0.76"/>
    <rect x="80" y="820" width="230" height="18" rx="9" fill="#95B4C2" fill-opacity="0.45"/>
    <rect x="455" y="782" width="105" height="20" rx="10" fill="#FF7373" fill-opacity="0.35"/>
  </g>
</svg>
